<svg xmlns="http://www.w3.org/2000/svg" xml:space="preserve" x="0" y="0" version="1.1" viewBox="298220 50000 603560 1100000"><path d="M864940 418921c3479-51604-11958-103595-42558-145212-25906-35233-69104-72105-114368-78632 124-2863 2441-46462 3356-65404 918-18968 3801-40346 992-59194-2249-15091-20290-17335-32595-18081-22596-1370-57401-7895-75887 8835-7190 6508-6033 13324-6110 22173-239 26894-4854 96037-5276 103764-35706-4976-71752 2616-103393 19703-22100 11935-41972 27482-60638 44185-17680 15821-36853 33238-44412 56348-20935 2677-46829 14240-55320 34853-8944 21716-2102 47862 15140 62980 6066 5320 12405 10170 18926 14700-2798 26120-4968 52280-8897 78270-1962 12976-8117 33316-2647 47057-13909 96395-30473 192784-39505 289786a1606694 1606694 0 00-5428 79668c-1107 25653 2347 50670-330 76458-2470 23801-8960 49077-7580 73065 778 13536 23722 24383 34276 30810 69178 42127 155558 56108 235480 54640 12831-236 35243 3098 44441-7880 6150-7339 8150-18295 11157-27102 4833-14154 9664-28308 14494-42462 8783-25736 15164-55448 28450-79193 10935-19544 23212-38036 32060-58730 10710-25050 17003-51275 28577-76097 9540-20458 18180-41302 25977-62485 18288-49684 32656-100646 47990-151286 174-576 160-1105 28-1589 4248-4529 6920-9983 9596-16086 5191-11830 11380-22940 17557-34287 13955-25633 28326-51466 40330-78100 8090-2350 13888-5500 20147-14135 6707-9252 12592-20820 12806-32490 371-20186-20607-38263-36836-48857zM706386 231804c4892 1819 9788 3628 14614 5614 3401 1400 19964 5317 10794 10873-2226 1348-26067-1626-26026-2529l618-13958zm20976 28223c9792 394 24835-4097 21019-17463-3622-12691-30376-17335-40968-20440-198-58-396-77-594-102 256-5823 521-11646 775-17469 15660 7999 32319 13893 47294 23549 20190 13018 38168 29070 53206 47814 30234 37684 44812 83598 46450 131175-6967-6282-15649-11205-23294-15717-13494-7964-27768-14455-42300-20268-28423-11369-57724-20654-87655-27060 1330-28551 2635-57103 3913-85656 7530 790 14955 1347 22154 1637zM852819 420590c-46768 26817-103867 24865-156047 18859 1402-29011 2777-58024 4134-87037 29125 11828 59692 19765 88672 32059 13734 5826 27254 12326 40016 20074 7873 4780 15082 11544 23225 16045zM629322 61500c19754-1355 40877-1110 60348 2912 5394 1114 17223 5427 7220 12094-8690 5792-30240 4446-40684 4039-9495-370-18456-2973-27731-5042-6499-1450-14111-1876-20078-5260 3368-5500 15449-8366 20925-8742zm-26101 120924c1563-34047 4328-68440 4378-102595 5348 3470 11571 5120 18440 6910 22580 5880 55160 11950 76670-659-109 7861-8605 157957-7810 158085-17657-2852-34950-7170-52150-12023-11670-3292-41680-4100-40878-21378 441-9450 907-18900 1340-28350zm-2166 45833c27177 15130 60774 24386 93177 28824-1727 32475-8144 153035-9653 180839-31237-4128-62356-10528-92895-19058 3250-63529 6378-127064 9370-190605zM353622 858383c837-17753 5508-84463 6752-100155 4710-59409 19533-117648 24878-176897 8724 12211 25193 18368 39310 21430 26115 5660 53519 1072 79393-3654 22002-4018 43928-8750 65900-13199-690 11870-1370 23740-2057 35611-11432-2844-22766-6065-33972-9549-3909-1215-8097 4217-3552 6271 12075 5456 24392 9990 36918 13768-2753 47776-5476 95554-8068 143340-674 12435-1179 24900-1628 37372-18726 1420-37868 10504-39927 31486-1836 18691 16430 46204 37138 41668-399 7904-2746 17860-1521 25630 3062 19434 42707 22956 57191 22593 11024-277 48555-6283 55505-11082-4086 9828-8280 19600-12752 29221-11264 24246-23670 47935-35299 72005-10620 21983-19907 51176-46514 57808-14037 3500-74497-3390-89554-6057a552965 552965 0 01-81645-20998c-20546-6990-46142-18953-51402-42850-2763-12552 963-26822 2583-39304 1510-11630 2150-23318 2310-35040 370-26456-1240-52968 3-79409zm34411-288336c468-7357 11520-12899 17518-15355 21233-8693 45934-3255 67676 338 18587 3072 37040 6867 55371 11207 12503 2959 25442 7340 38406 10638-2968-755-25170 5688-30765 6950-11657 2629-23329 5195-35067 7435-22605 4313-45840 8163-68907 5906-9133-894-17926-3945-25738-8744-5814-3572-15192-8126-17896-14841-490-1218-670-2398-598-3534zm169200 250222c-669 19405-1255 38826-2147 58204-4807-2691-10101-4188-14583-7787-7355-5905-13001-14660-12755-24348 420-16547 15600-22535 29485-26069zm103291 96047c-13510 5524-31616 7548-45774 8328-18418 1015-36343-2466-52670-10997 6-44 20-81 25-126 6790-92600 12884-185190 18075-277913a340297 340297 0 00 41656 7905c16649 2099 34090 3632 51337 3149-2375 43743-4720 87488-6960 131239-2354 46026-2440 92470-5690 138415zm21880-438293-1472 26806a1220800 1220800 0 01-92823-16775c462-8838 910-17677 1370-26516 30719 6838 61697 12637 92925 16485zm-92316-28275c307-5930 614-11860 919-17790 30258 8426 61428 15221 92860 19201-295 5420-586 10850-882 16280-31230-4320-62210-10480-92897-17700zm90260 65742c-813 14779-1623 29558-2435 44337-28866 1468-57470 6148-85804 11790a142821 142821 0 00-8245-3367c1229-23022 2463-46044 3670-69068 28744 6175 90808 16029 92813 16308zm-3040 55357c-1140 20757-2267 41515-3397 62273-16145 210-32340 657-48421-1090-15000-1630-29912-4216-44683-7479a52616300 52616300 0 00 2258-41270c31155-6080 62458-11150 94244-12424zM579694 415390c-31755-9496-62812-21262-92617-35184-18472-8628-36476-18347-53542-29517-15440-10107-26795-23683-39058-37058 32788-230 65259 264 98017 3220 16618 1498 78172 10841 92187 10515-513 9116-3834 67800-4987 88025zm106752 230475c10187-972 20215-2793 29870-5801 2717-847 948-5170-1275-5445-9250-1146-18566-1510-27914-1570 318-6136 668-12266 978-18403 747-14734 1473-29470 2213-44204 25195-541 57403 87 76315 16875 12465 11066 8484 25198 2800 38569-4206 9902-7241 19603-9927 29993-12168 47070-27438 91900-44770 137305-15205 39829-28918 80731-44946 120428 6490-89202 11948-178416 16656-267747zM455652 242893c5189-3640 10389-7153 15508-10566 33645-22430 70814-37469 111710-36335 3033 84 6072 317 9107 554l-657 11898c-1 6-6571 3367-6996 6354-602 4227 2742 7284 6143 9083-1758 31543-3513 63085-5289 94627-13257-4476-142975-17220-192434-11975 14038-26253 38334-46395 62908-63640zm-115610 140423c-8585-16564-5004-39232 9037-51150 10449-8870 22823-14185 35858-17793 18200 33156 48737 52450 81560 69665 33360 17497 68610 31180 104620 42146 2598 791 5217 1551 7830 2321-350 6115-690 12230-1042 18345-76900-18768-152131-42379-211903-96949-2996-2736-8703-269-5476 3620 49815 60047 128780 84055 201813 101720a1517290 1517290 0 00 14890 3513c-510 8830-1025 17660-1537 26490a1234944 1234944 0 01-40894-10199 1255240 1255240 0 01-78895-23970c-21992-7476-44074-14388-63791-26740-17190-10772-42407-22375-52070-41019zm265975 746195c-4025 6362-10721 6273-17766 6660-77362 4256-160606-6369-230420-41576-13975-7047-34616-16172-44754-28496-3273-3979-3357-10718-2630-17411 81086 67295 197480 78289 298966 72742-890 2898-1915 5742-3396 8080zm201399-522608c-5571 10693-8571 23492-17432 32176-3130 3060-1400 8180 1925 9190-12828 40210-25081 80650-39115 120450-6711 19030-13947 37870-21900 56420-8461 19737-18809 39624-26686 59985-8185 21155-13761 43240-24474 63375-10187 19146-23994 37378-31088 57973a307443325 307443325 0 00-36220 105190c-104880-994-208950-10835-298588-70228-677-449-1461-680-2261-737 360-2255 3910-29807 5283-41644 1263-10887 2338-21820 2616-32782 337-13320-1936-26334-2105-39582-321-25235 2250-50896 4260-76034 7964-99622 29367-197942 37303-297460 2099-163 4189-1408 3940-3534-4806-41029 7650-82389 8669-123918 35419 22362 76103 35344 116156 47580 28805 8804 57955 16480 87340 23115-1306 22522-2613 45044-3923 67566-18446-5440-38245-8757-56140-12680-19760-4335-39834-8395-60004-10298-22027-2078-55552-3238-71092 15857-10447 12834-10098 36585-12914 52137-4334 23925-8490 47886-12104 71931-3820 25410-7044 50920-9208 76524-2570 30394-3112 60475-6711 90764-3442 28967-170 59048-656 88163-198 11797-881 23540-2398 35244-2014 15550-6053 32783-988 48491 4899 15197 17910 28018 31193 36267 22010 13671 52423 19481 77383 25436 28910 6898 58384 11483 88020 13742 25370 1934 49837 1386 67540-19317 15770-18440 24045-43831 34695-65338 12476-25195 25180-50297 36002-76263 11654-27964 21206-56935 31970-85270 19883-52330 41330-104100 55913-158220 6040-22414 11258-44355 19800-65935 7074-17868 6650-35937-9377-48664-21582-17138-54738-17755-81170-17230 704-14048 1415-28095 2110-42140 53958 7191 111303 12225 164218 50-12120 18901-44380 79271-49782 89636zm73738-110047c-8040 10700-21206 11882-33770 14004-50120 8463-103624 2463-153871-4279 446-9037 874-18075 1316-27113 5010 530 10030 1038 15060 1455 46811 3882 97692 4694 143430-7480 4206-1120 1046-6499-2347-6181-24754 2317-48993 6297-73954 6689-21347 335-75800-4155-81693-4874l801-16516c28561 2925 57256 3436 85594 543 26780-2735 60307-8346 79516-29150l10-4c74-2 148-9 220-15 13152 9040 29314 23129 31842 38479 1995 12117-5146 25100-12164 34442zM442891 145675c-4385 11196-6787 27805 8191 29740 8038 1038 13528-5120 19060-9834 4657-3968 10466-7753 13321-13304 10879 4420 27324 10900 32262-1643 4143-10523-3103-19630-11509-25224 7725-6550 16169-16730 10281-24087-3174-3967-8944-4124-13580-3904-6553 311-13032 1495-19122 3841-2303-5764-7522-10975-11360-15523-4182-4955-9737-8902-16587-7817-15733 2491-10132 23833-7988 34830-11353 738-29728 4163-29120 16801 487 10094 16046 17340 26150 16124zm-6103-23414c5923-1900 10764-2012 13695-4640 4153-3758 2283-33154 7601-30632 1389 660 2417 1880 3386 3077 4515 5579 9325 16132 16596 18605 7770 2643 16943-4447 25480-1301 3340 1230-4707 9473-5650 10524-2303 2566-7154 5490-6745 9510 565 5557 23072 11340 13677 20540-9133 8943-21613-11240-28568-729-4450 6726-26226 31508-27185 10848-200-4520 1667-9057 1306-13613-652-8223-16650-7970-22216-13504-4643-4624 5750-7763 8623-8685zm-44157 87997c3706 5011 14278 16722 13238 23371-646 4120 5805 4450 7892 2300 3847-3970 7744-7890 11778-11670 3330-3130 9180-10408 13710-11460 5422-1260 5880-9037-440-8278-15976 1918-22569-14590-22629-27907-20-4508-7070-5429-8149-1004-2686 11027-7464 20442-14010 29514-1887 962-3013 2943-1400 5125zm17831-17383c2745 8369 7906 15382 15767 18464-4657 3754-9000 8426-12958 12793-2874-6040-8312-12172-12005-16516a74742 74742 0 00 9207-14741zm-44506-44632c4187-27 8364-187 12542-353-258-4405-460-8810-494-13236-31-3981 6448-2202 7055 778 824 4048 1546 8090 2206 12149 5264-145 9753-556 14250 2713 1993 1449 1888 4550-680 5228-4005 1057-8056 1389-12129 1367 570 3964 812 7650-1030 11580-700 1482-2594 1495-3838 742-4873-2950-4513-7640-4806-12910-4384-449-8774-1042-13145-1386-4364-345-4417-6653 70-6682zm359093 894743c-599-281-1033-698-1261-1296-3578-9386-6953-23426-18574-25750-6475-1367-8994 3421-10759 8715-2070 6211-3822 12721-3979 19298-11185-617-30982-211-32227 12375-565 5707 3694 9256 8584 11128 4328 1657 8596 3603 13013 4276-6125 11158-12015 28443 4699 31371 11241 1969 19613-7376 23210-17296 8576 6106 21639 11653 31050 6263 5498-3149 5397-8517 2770-13602-687-1330-9322-12400-10412-12125 7060-1776 24066-7050 20743-17480-3630-11391-21605-3412-26857-5877zm15058 10725c-921 2898-3559 4036-6571 4744-4935 1161-10876 1171-11911 5895-1204 5506 7003 11513 10120 15423 926 1161 1886 2462 1859 3954-127 6078-23756-1547-24237-4917-438-3074-6047-3476-7420-689-2819 5720-6502 18950-15377 16550-8925-2410-1325-14150 458-19170 4950-13930-9433-12650-18454-19493a4030 4030 0 01 1652-138c7633 914 27407-1367 28050-9600 592-7580 1545-16454 5976-22858 1352-1955 10243 17793 10863 18980 4350 8327 10477 8332 18805 7692 3480-268 7462-396 6187 3636zm-17605-50906c8762-9183 18478-17095 29596-23275 3781-2100 159-6419-3040-6190-13644 974-19227-13337-22928-23996-1157-3331-7676-3402-8339 342-1150 6493-2770 14059-6230 19772-3350 5528-4740 6460-1830 11716 3447 6235 6695 10303 5980 18330-286 3230 4315 5905 6800 3301zm608-39336c3818 7043 8902 13142 15968 15671-5654 3865-11010 8040-16076 12656-930-5191-3096-9896-6524-14180 2702-4559 4927-9250 6632-14147zm51732 52837c-4954 2472-10660 3595-16501 4142-21 3355-434 6638-1498 9653-1054 2996-6407 2021-7410-460-1040-2577-937-5660-783-8678-3087 64-6121 76-9010 144-5077 120-4657-7227 83-7539 2950-194 5888-473 8822-786-316-3559-880-7080-1612-10588-993-4746 6810-4848 8080-837 1005 3178 1927 6674 2553 10260 740-110 1485-185 2226-303 4540-720 9316-2160 13768-373 1900 764 3828 4107 1282 5377zM530060 1000020c-11933 13643-16081 36183-3698 49316 15060 15971 45628 14284 58348-3123 11462-15686 9660-38044-5665-50561-14294-11675-36963-9376-48985 4368zm44154 6355c10880 11543 9725 31032-4730 39433-9320 5416-30167 2139-36790-6901-8102-11064-1721-26329 7006-34947 9883-9757 25318-7340 34514 2415zm-153007 29040c21299 1011 38563-5111 43618-27921 5237-23634-15710-38533-36697-41574-25214-3653-47508 7099-44931 35208 1715 18703 19667 33416 38010 34287zm-18765-57523c9454-4444 25998-5631 35717-1054 19203 9046 25419 39683 1193 47246-10248 3199-27185 1751-35296-5692-11638-10682-19830-31938-1614-40500zm71072-62168a27573 27573 0 00-3968 6494c-7331 16895 3505 38745 18959 47557 18860 10754 42274-1450 51549-19436 9336-18104 1149-39048-18102-45850-15837-5594-37400-2273-48438 11235zm31428-3810c20887 1935 39378 20130 22507 39411-8702 9944-22153 13640-34080 7188-25761-13935-17978-49336 11573-46600zm-112955-38956c6549 18559 29574 26140 47619 20370 18531-5925 36517-29809 25142-49131-10374-17621-35075-21000-52925-14450-15890 5831-24728 24258-20662 40464 235 941 511 1857 826 2747zm8819-21846c8409-17220 36761-18299 50070-6859 14473 12442 2658 35020-13358 39513-19383 5436-48354-8815-36712-32654zm45825-53065c20102 8850 46806 2688 54827-19219 6754-18447-1810-38321-19668-46416-16411-7439-38696-2104-49437 12535-13107 17864-5826 44250 14278 53100zm-6610-46724c8660-10896 26910-16158 40660-7287 12978 8374 18093 27279 6570 39368-11208 11759-35226 9110-45461-2597-9290-10628-8066-21549-1760-29484zm28230-476780c9340-26028 40337-44313 67910-40939 5034 616 4328 7664-4 8876-12208 3415-24156 6350-34900 13370-9855 6437-16813 15937-26252 22777-2763 2004-8104-314-6752-4084zm-84520 241806c2010-11506 5264-26541 13490-35231 8148-8607 17624-1785 26523 2374 12880 6021 25964 11502 39340 16326 14140 5100 29788 7786 42370 16156 3215 2138 267 7020-2536 7748-16683 4338-39291-7383-54644-13624-10285-4180-20412-8754-30241-13922-4528-2380-9388-6878-14960-4554-6777 2826-8426 17707-9920 24964-1065 5172-10455 5684-9420-237" fill="#6366f1"/></svg>
